Patient4_TMGait_0pt6_01_right_11_EMG.mot
version=1
nRows=40
nColumns=33
inDegrees=no
endheader
time	1LAddLong	2LGlutMax	3LGlutMed	4LIliopsoas	5LSemiMemb	6LBicFemLong	7LRecFem	8LVastMed	9LVastLat	10LGasMed	11LTibAnt	12lTibPost	13LPeroneusLong	14LSol	15LExtDigLong	16LFlexDigLong	17RAddLong	18RGlutMax	19RGlutMed	20RIliopsoas	21RSemiMemb	22RBicFemLong	23RRecFem	24RVastMed	25RVastLat	26RGasMed	27RTibAnt	28RTibPost	29RPeroneusLong	30RSol	31RExtDigLong	32RFlexDigLong
13.192	-0.007019	-0.36331	-0.003967	0.003815	0.000153	-0.026245	0.22568	0.001526	0.092163	-0.042572	0.22018	-0.001678	-0.015106	0.046234	0.28519	-0.001984	-0.000916	-0.42282	-0.52597	0.023499	0.12726	0.016327	0.28595	0.46921	-0.29266	-0.014038	0.18326	-0.00824	0.062714	0.31052	-0.004578	0.025787
13.193	-0.008392	-0.36987	-0.018616	0.009766	0.001373	-0.002136	0.20676	0.005493	0.081024	-0.039063	0.065308	-0.000458	-0.009918	0.1004	0.4332	0.008698	0.009613	-0.43335	-0.7544	0.046844	0.15579	-0.027466	0.25101	0.018616	-0.51498	0.00824	0.057068	0.010681	0.14297	0.1506	-0.000763	0.021515
13.194	0.003967	-0.33157	-0.041962	0.011902	-0.004578	-0.025024	0.23605	-0.001678	0.077362	-0.045319	-0.28122	-0.008392	0.014801	0.12207	0.7309	-0.009918	0.02594	-0.28656	-0.78156	0.044861	0.12924	-0.013733	0.12268	-0.21332	-0.47348	0.001831	-0.006409	0.071869	0.073547	0.031281	0.003357	0.018768
13.195	0.003052	-0.35934	-0.047302	0.013733	-0.005646	-0.014954	0.24094	0.001831	0.076447	-0.088501	-0.07431	0.003662	0.036163	0.22842	-0.46219	0.004883	0.010986	-0.27252	-0.41214	0.006561	-0.053864	0.052185	0.36407	-0.39398	-0.35309	-0.026855	-0.032501	-0.32547	-0.089264	0.16937	0.001831	0.010529
13.196	-0.007019	-0.36346	-0.072937	0.020599	0.00061	-0.027924	0.23575	0.005188	0.069427	-0.10895	-0.007935	0.006104	0.023346	0.27878	-0.39429	0.009766	-0.01236	-0.298	-0.57037	0.004883	-0.16464	0.075378	0.4306	-0.50232	-0.28824	-0.024872	-0.027313	0.014038	-0.18936	0.42938	0.001984	0.004883
13.197	-0.010071	-0.41702	-0.082245	0.040131	-0.010529	-0.012207	0.20767	0.005035	0.059509	-0.082092	0.00351	0.004425	-0.044861	0.15091	-0.37125	-0.001373	-0.008087	-0.34851	-0.68909	-0.043793	-0.20401	0.029449	0.27863	-0.42511	-0.24414	-0.023804	-0.012817	0.060577	-0.15808	0.23041	0.000305	0.004578
13.198	-0.004425	-0.39749	-0.092316	0.023193	0.005188	-0.013733	0.17685	0.006561	0.046692	-0.047913	0.047455	0.005951	-0.12436	0.075989	-0.44922	-0.012665	0.007324	-0.42099	-0.31952	-0.20859	-0.015717	-0.059357	0.31067	-0.14862	-0.2298	-0.02655	0.0737	0.032349	-0.1712	-0.16174	-0.002747	-0.008087
13.199	0.00885	-0.37582	-0.1001	0.003967	-0.008087	-0.018463	0.15884	0.001221	0.046539	-0.075378	-0.095825	0.005951	-0.10742	-0.035706	-0.26642	0.030365	0.010681	-0.44418	-0.3125	-0.23377	0.059509	-0.038605	0.33737	-0.067749	-0.30258	-0.023193	0.13886	0.010376	-0.24216	-0.58899	0.000305	-0.012665
13.2	-0.008087	-0.37262	-0.11322	0.005035	-0.005035	-0.033264	0.093231	0.003204	0.053406	-0.079041	-0.16541	0.007782	-0.042114	-0.096283	-0.1503	0.019073	-0.019226	-0.48538	-0.699	-0.10269	0.13062	-0.067749	0.011749	0.011292	-0.18921	-0.010223	-0.019531	-0.007629	-0.57251	-0.48263	0.00351	-0.00351
13.201	-0.007172	-0.34058	-0.092468	0.019684	-0.003357	-0.01709	0.057678	0.00061	0.060577	-0.070953	-0.14603	0.006104	-0.056763	-0.14893	0.11475	0.003815	-0.016785	-0.48202	-0.17059	0.032043	0.14786	-0.081177	-0.27313	0.30685	0.13351	-0.010681	-0.088196	-0.00946	0.25696	-0.087433	0	-0.003815
13.202	-0.004883	-0.32257	-0.092926	-0.003967	0.005341	-0.019989	0.056152	0.012512	0.038757	-0.076447	-0.16724	0.004272	-0.008545	-0.12817	-0.28534	0.007172	0.005951	-0.56686	-0.20355	0.06485	-0.022278	-0.039368	-0.30533	0.37155	0.42954	0.003357	0.000916	-0.016632	1.6423	0.1831	0.007629	-0.011139
13.203	-0.009155	-0.31799	-0.09964	-0.002289	0.005493	-0.007019	0.10193	0.005951	0.027771	-0.079346	-0.11002	0.008392	-0.013123	-0.08606	-0.26916	0.010071	0.00946	-0.69427	-0.34256	0.074005	-0.25513	-0.044403	0.030975	0.21042	0.56946	0.020142	0.10193	-0.011292	0.90897	0.14069	0.002289	-0.002136
13.204	-0.015411	-0.31387	-0.095215	-0.00061	0.004425	-0.023956	0.17395	0.010681	0.00946	-0.099792	-0.006256	0.006256	-0.004272	-0.014343	-0.12421	0.014191	0.004883	-0.83115	-0.56412	0.14252	-0.16937	-0.15915	0.24475	0.056763	0.50232	0.013733	0.017548	-0.016327	-1.1774	0.068665	0.001221	-0.006714
13.205	-0.015411	-0.26459	-0.090179	-0.011749	0.004425	-0.018463	0.2301	0.003052	-0.004425	-0.14282	0.13077	0.005798	0.002136	0.019379	0.04303	0.015717	-0.007782	-0.99411	-0.34149	0.072174	-0.039673	-0.17792	0.29098	-0.12207	0.32394	0.006256	-0.12375	-0.015106	-0.93124	-0.003662	-0.002747	-0.000458
13.206	-0.01358	-0.27298	-0.063934	-0.013885	0.002594	-0.022125	0.20126	0.014191	-0.005188	-0.16266	0.20783	0.00412	0.031586	0.078583	0.04303	0.018463	0.009613	-1.2242	-0.49301	0.22095	-0.12268	-0.14984	0.17593	-0.19119	0.21027	0.006561	-0.18463	-0.01297	-0.62454	0.020447	-0.00061	-0.004883
13.207	-0.010223	-0.3038	-0.0383	-0.000458	0.007172	-0.016632	0.18616	0.013428	-0.014801	-0.12146	0.17929	0.009155	-0.061188	0.030518	0.52261	0.0177	0.004425	-1.3686	-0.4837	0.26398	-0.27573	-0.057678	-0.25574	-0.25482	0.14954	-0.001678	0.040588	-0.00946	0.25543	-0.095215	0.004272	-0.012054
13.208	-0.020294	-0.33234	-0.030823	0.007172	0.008545	-0.018616	0.18005	0.010681	-0.018463	-0.12024	0.056458	0.010071	-0.072021	-0.048065	0.74448	0.015411	0.02243	-1.4583	-0.3627	0.20798	-0.39246	-0.006104	-0.33234	-0.22873	0.11047	-0.007629	0.053406	-0.016022	2.4394	-0.028534	-0.006714	-0.017548
13.209	-0.012665	-0.34271	-0.007935	0.012817	0.013733	-0.0177	0.27756	0.013123	-0.029602	-0.121	0.18936	0.00824	-0.09552	0.016479	-0.10086	0.014191	0.047455	-1.5614	-0.46799	-0.024719	-0.057373	-0.15182	-0.31342	-0.28153	-0.006104	-0.00061	-0.020447	-0.02243	2.1405	0.050964	-0.001068	-0.014038
13.21	-0.002594	-0.3389	0.012665	-0.004883	0.007629	0.003357	0.30533	0.018158	-0.030365	-0.095825	0.13062	0.00824	-0.12085	0.11704	-0.049438	0.003815	0.020142	-1.6275	-1.0669	-0.19241	0.32837	-0.19424	-0.00885	-0.16586	-0.31937	0.007019	-0.11505	-0.023346	-0.63828	0.005341	-0.001526	-0.015106
13.211	-0.001068	-0.3125	0.009155	-0.006256	0.014496	-0.021057	0.3157	0.003967	-0.027771	-0.13077	-0.10025	0.002136	-0.016632	0.081787	-0.30991	0.005341	-0.018158	-1.6797	-0.96054	-0.23102	0.32379	-0.046997	-0.011139	-0.087128	-0.36194	0.006409	-0.13001	-0.049133	-0.86914	0.019379	-0.000153	-0.00885
13.212	0	-0.26916	0.017242	0.00824	0.012817	-0.020294	0.31555	0.005188	-0.026398	-0.11093	-0.14908	0.006409	0.013885	0.0914	-0.37415	0.00824	-0.016785	-1.7068	-0.60333	-0.13962	-0.025787	-0.10132	-0.091858	-0.024567	-0.1712	0.009308	-0.04776	-0.063477	-0.34439	0.17746	-0.003204	-0.016937
13.213	0.008087	-0.23941	0.039978	0.005035	0.013275	-0.010834	0.35202	0.008545	-0.028992	-0.10422	-0.080872	0.009766	-0.0354	0.11612	-0.21164	-0.007172	-0.038605	-1.8031	-0.51376	0.004578	-0.31479	-0.13229	0.18738	0.22614	0.060577	-0.016174	-0.003052	0.04715	0.046539	0.15549	-0.000305	-0.025635
13.214	0.006714	-0.23483	-0.002441	0.010529	0.013428	-0.011597	0.30502	0.014038	-0.019531	-0.1088	0.058594	0.005341	-0.066681	0.098572	-0.057831	-0.006409	-0.054626	-1.821	-0.65964	0.13489	-0.11658	-0.22842	0.54565	0.2507	0.13306	-0.015564	-0.096893	0.052032	0.030975	0.14084	0.002899	-0.023041
13.215	0.009003	-0.19211	-0.025177	-0.012665	0.012817	-0.02594	0.28824	0.005493	-0.026093	-0.10727	0.085754	0.015106	-0.051575	-0.056763	0.000458	-0.005493	-0.074768	-1.7819	-0.35355	0.045776	0.10101	-0.28046	0.54047	0.29968	0.079498	-0.00824	-0.20691	0.003967	0.043488	0.021057	-0.003052	-0.02182
13.216	0.020599	-0.1506	0.00946	-0.007782	0.008087	-0.016174	0.31097	0.010376	-0.005646	-0.10803	-0.023651	0.011597	-0.035553	-0.10513	0.023499	-0.009155	-0.099182	-1.7558	-0.16632	0.072632	0.18448	-0.36148	0.74417	0.41443	0.20096	-0.001831	-0.3363	-0.011444	-0.14267	0.013275	-0.003052	-0.029755
13.217	0.00061	-0.20584	0.02655	-0.015106	0.014801	-0.014801	0.29923	0.00473	0.011902	-0.087585	-0.1265	0.007782	-0.04364	-0.10315	0.031586	-0.011292	-0.030365	-1.7307	-0.43839	0.090637	-0.052185	-0.37415	1.0902	0.43976	-0.063171	-0.015106	-0.32166	-0.005951	-0.95596	-0.030518	-0.002289	-0.031738
13.218	0.011749	-0.15717	0.036774	-0.011292	0.012207	0.006256	0.2858	0.004425	0.047913	-0.07309	-0.089874	0.009766	-0.084381	-0.041504	0.15167	-0.005035	0.012207	-1.6783	-0.21011	0.025787	-0.11963	-0.17395	0.94955	0.21927	-0.33783	-0.013275	-0.19196	0.000458	-0.75501	-0.005646	-0.003204	-0.023041
13.219	0.00824	-0.15625	0.041351	-0.013733	0.011597	0.013428	0.28732	0.014648	0.066833	-0.072021	-0.088196	0.003357	-0.054932	-0.028839	0.11932	-0.010681	0.011444	-1.6525	-0.40741	-0.090637	-0.072327	0.066681	0.51834	0.14832	-0.37094	-0.010681	0.2562	0.001831	-0.5809	0.048828	-0.001221	-0.023193
13.22	0.016327	-0.15869	0.037231	-0.007782	0.008698	0.019379	0.21805	0.010223	0.063324	-0.07782	-0.067749	0.006866	-0.05249	0.017548	0.06485	-0.016327	-0.059967	-1.5836	-0.38254	-0.07843	0.031586	0.28976	-0.31937	0.024567	-0.215	0.003815	0.6662	0.00412	-0.56778	-0.08194	-0.000305	-0.029449
13.221	0.01236	-0.15686	0.027313	-0.010223	0.002594	0.023804	0.10376	0.009613	0.050812	-0.089722	0.007629	0.001526	-0.076599	0.039673	0.079346	-0.001373	-0.071106	-1.3817	-0.33493	-0.063934	0.14587	0.30945	-1.0838	-0.027771	-0.043793	0.009613	0.92148	0.000763	0.49149	-0.16632	0.003357	-0.009613
13.222	0.013733	-0.18326	0.02182	-0.016785	0.002441	0.010071	-0.025787	0.017242	0.041656	-0.079651	-0.004272	0.008087	-0.10681	0.088501	0.092621	-0.001221	-0.046387	-1.2657	-0.34363	0.011292	0.070496	0.13794	-0.77118	0.18021	0.020905	0.004272	0.77255	-0.001831	0.99304	-0.12848	-0.000305	-0.012512
13.223	0.015411	-0.27206	0.023499	-0.010071	0.004883	0.008087	-0.10239	0.016174	0.043488	-0.040436	-0.079956	0.019226	-0.11826	0.054474	0.39825	-0.012665	-0.039825	-1.1739	-0.1944	0.094604	-0.023651	-0.029297	-0.49408	0.2919	0.008698	-0.000916	0.20615	-0.005798	1.1243	-0.10483	-0.001373	-0.016937
13.224	0.015869	-0.32059	0.024109	-0.005035	0.008545	0.009613	-0.16235	0.012207	0.012207	-0.044403	-0.14099	0.005035	-0.10788	-0.00061	0.24475	-0.004578	-0.012054	-1.0883	-0.16571	0.049286	0.16357	-0.15869	-0.38452	0.13947	-0.016937	-0.00412	-0.36453	-0.005951	1.3329	-0.042419	-0.001526	-0.023499
13.225	0.013885	-0.37582	0.011597	0.00061	-0.002747	0.021973	-0.18188	0.010529	0.014496	-0.054932	-0.023346	0.001984	-0.090332	0.018005	0.092621	-0.007782	0.022888	-0.95001	-0.21271	0.0383	0.15564	-0.31433	-0.089264	0.056	-0.03479	-0.004272	-0.52094	-0.010834	1.3901	0.016174	0.00061	-0.018311
13.226	0.007935	-0.44373	0.023804	0.016327	0.003052	0.016785	-0.16419	0.011292	0.018463	-0.052948	0.063171	0.013428	-0.10803	0.02655	-0.17944	-0.005798	0.043488	-0.80566	-0.051575	0.029449	0.093384	-0.3978	0.16754	0.10849	-0.066071	-0.010223	-0.43732	-0.004883	0.33112	0.008392	-0.001526	-0.021515
13.227	-0.003662	-0.504	0.010681	0.021973	0.003662	0.018158	-0.1857	0.008698	0.02243	-0.035095	0.052032	0.001373	-0.10178	0.037537	-0.31372	-0.009613	0.013885	-0.67017	-0.074615	-0.004272	0.076752	-0.43274	0.048065	-0.039215	-0.013275	-0.004883	-0.074615	-0.005493	-1.8275	-0.073242	-0.002899	-0.022278
13.228	-0.007935	-0.57022	0.020599	0.00885	0.010986	0.003052	-0.062408	0.00824	-0.049744	-0.012817	0.005341	0.003967	-0.11444	0.059052	-0.32516	-0.011292	-0.006409	-0.57327	-0.094604	-0.11276	-0.028534	-0.43884	-0.2475	-0.009766	0.11551	-0.001526	0.080414	-0.003967	-0.33264	-0.097351	-0.003052	-0.023346
13.229	-0.005188	-0.57098	0.013885	0.00061	0.001526	0.01358	0.072174	0.017548	-0.022888	0.008545	0.034943	-0.005035	-0.10468	0.10712	-0.14847	-0.004883	0.013428	-0.37491	-0.098267	-0.20432	-0.08606	-0.48523	-0.17639	0.10452	0.24979	-0.00061	-0.013885	-0.011292	-0.4274	0.010223	0.003204	-0.023041
13.23	-0.011139	-0.63583	-0.002136	0.009003	0.009155	0.010376	0.15045	0.005951	-0.010223	-0.004272	0.052948	0.016022	-0.082245	0.10162	0.06897	-0.006561	0.010223	-0.20096	0.21393	-0.077209	-0.19241	-0.33844	-0.02533	0.001373	0.078888	-0.002136	0.10193	-0.007477	-1.7897	0.044861	0.000458	-0.021057
13.231	-0.009003	-0.65659	-0.026855	0.011292	0.005798	0.007629	0.11383	0.00473	-0.035858	-0.026703	-0.070496	0.002747	-0.001831	0.091705	-0.007782	-0.002747	0.027161	0.029755	0.26138	0.019684	-0.27573	-0.17807	0.080109	-0.074615	-0.083466	-0.003967	-0.083008	-0.010986	0.70358	0.072784	0.010223	-0.019073
